<svg width="101" height="101" viewBox="0 0 101 101" fill="none" xmlns="http://www.w3.org/2000/svg">
<circle cx="50.0308" cy="50.0327" r="45.8448" stroke="#485D9B" stroke-width="8.31041"/>
<path fill-rule="evenodd" clip-rule="evenodd" d="M41.2443 59.0773C36.3572 56.1869 30.485 52.7138 30.2523 52.6092C29.854 52.4302 18.2266 53.2222 17.3496 53.3143C16.4727 53.4064 15.7747 52.4488 16.2921 51.1991C16.8096 49.9494 25.2098 40.5314 26.0571 40.2707C26.9045 40.01 27.4385 40.1944 27.8551 40.7995C27.8551 40.7995 32.1693 48.9452 32.5437 49.1545C32.9182 49.3638 48.5128 54.84 48.9914 54.6742C49.4699 54.5085 49.3947 50.2121 49.3947 50.2121C49.3947 50.2121 48.5352 49.9981 48.7601 49.2955C48.985 48.5929 48.9716 43.1967 48.9716 43.1967C48.7601 30.8588 78.6608 27.8956 80.2764 44.4658L81.4397 63.1852V65.7234C81.4397 66.3058 79.5008 66.4638 79.5008 66.4638C79.5023 67.217 50.8883 67.3612 49.6414 66.4638C49.4965 66.3594 49.3578 66.2614 49.2263 66.1684C48.2267 65.4619 47.6377 65.0456 47.7935 64.3337C47.9698 63.5281 48.0198 63.0442 47.7935 62.9389C47.6994 62.8952 44.7212 61.1337 41.2443 59.0773ZM52.0454 44.1719H76.9349C74.6289 31.2104 53.1189 32.6418 52.0454 42.8599V44.1719Z" fill="#485D9B"/>
</svg>
