<svg width="101" height="101" viewBox="0 0 101 101" fill="none" xmlns="http://www.w3.org/2000/svg">
<path d="M30.5964 57.6436C35.0421 53.3084 45.1529 54.1371 45.3865 55.2264V22.0817C45.3865 18.1135 50.0547 18.1135 50.0547 18.1135C50.0547 18.1135 74.2671 40.4057 75.4968 42.8554C76.7264 45.305 76.1568 51.8087 75.4968 54.0592C74.8368 56.3097 66.3887 63.8685 65.46 61.5285C64.5313 59.1884 65.46 56.4209 65.46 54.0592C65.46 51.6976 55.6566 43.9711 55.6566 43.9711C55.1898 52.0628 57.7145 64.1739 55.6566 69.9822C51.0487 82.9877 32.93 83.877 27.1801 77.634C22.2173 72.2456 22.4371 65.6002 30.5964 57.6436Z" fill="#485D9B"/>
<circle cx="50.0464" cy="50.0327" r="45.8448" stroke="#485D9B" stroke-width="8.31041"/>
</svg>
