<svg width="101" height="100" viewBox="0 0 101 100" fill="none" xmlns="http://www.w3.org/2000/svg">
<path d="M76.8277 23.3186L69.2771 19.1658C70.0322 24.4512 64.808 34.6445 63.6141 34.6445C62.4816 34.6445 62.4606 33.7622 62.4816 33.8895C61.7265 30.1142 54.9309 25.5838 44.3601 27.0939C27.8606 29.451 25.8611 45.5929 25.106 54.2761C24.502 61.2227 20.5756 69.2515 18.688 72.3976C38.0176 80.8543 52.9174 78.6898 57.9512 76.5504C56.3152 75.7954 52.7412 73.5302 51.5331 70.51C50.023 66.7346 53.4208 55.4087 63.9917 56.9188C72.4484 58.1269 73.0524 66.483 72.2973 70.51C75.3176 68.874 81.3581 63.3369 81.3581 54.2761C81.3581 42.9502 69.6546 38.0423 67.767 37.2872C66.2569 36.6832 66.8861 35.5254 67.3894 35.0221C70.7872 31.6243 75.4434 25.9613 76.8277 23.3186Z" fill="#485D9B"/>
<circle cx="50.0229" cy="50.0005" r="45.8448" stroke="#485D9B" stroke-width="8.31041"/>
</svg>
