<svg width="61" height="61" viewBox="0 0 61 61" fill="none" xmlns="http://www.w3.org/2000/svg">
<path fill-rule="evenodd" clip-rule="evenodd" d="M30.9686 60.4478C47.5372 60.4478 60.9686 47.0163 60.9686 30.4478C60.9686 13.8792 47.5372 0.447754 30.9686 0.447754C14.4001 0.447754 0.968628 13.8792 0.968628 30.4478C0.968628 47.0163 14.4001 60.4478 30.9686 60.4478ZM32.0075 18.4601V24.1074C31.4964 23.8145 31.0057 23.5861 30.5656 23.3813L30.5655 23.3813L30.4309 23.3186C28.0004 22.1844 20.8839 21.8765 16.6711 27.0616C14.8118 29.3499 15.1001 32.2741 15.4049 35.3656C15.6527 37.8782 15.9113 40.5012 15.0367 42.9831H19.2016C19.4535 42.9831 20.149 43.2595 21.0707 43.6257C23.1131 44.4373 26.266 45.6902 28.1639 45.3553C30.9185 44.8692 35.371 40.4655 36.0192 37.7109C36.1344 37.2213 36.3429 35.1092 36.3884 33.0102L41.113 35.6678L45.1256 39.989L46.9004 38.7544V33.5072L45.1256 31.2694H42.4248L38.5666 28.4143L40.3414 20.0806L39.1839 16.3766L32.0075 13.7531L29.5383 16.3766L32.0075 18.4601Z" fill="#837B75"/>
</svg>
