<svg width="83" height="83" viewBox="0 0 83 83" fill="none" xmlns="http://www.w3.org/2000/svg">
<circle cx="41.7259" cy="41.7889" r="38.1888" fill="#C4CEED" stroke="#596FAE" stroke-width="6"/>
<path d="M43.1523 25.3303V34.9711V43.6585L48.8734 45.1418L55.6538 48.9557L61.1629 54.8886L63.5996 53.1935V45.9893L61.1629 42.9169H57.4548L52.1576 38.997L54.5944 27.5551L53.0052 22.4698L43.1523 18.8677L39.7622 22.4698L43.1523 25.3303Z" fill="#596FAE" stroke="#596FAE" stroke-width="4"/>
<path d="M22.0959 37.1397C17.4686 42.8348 22.5301 51.3992 19.8521 58.9993H25.5702C26.6825 58.9993 34.0933 62.9236 37.8752 62.2562C41.657 61.5888 47.7702 55.5427 48.6601 51.7608C48.9494 50.5313 49.6673 41.848 48.6601 39.4559C46.5692 34.4902 43.2397 33.0518 40.9876 32.0008C37.6506 30.4436 27.88 30.0209 22.0959 37.1397Z" fill="#F5F6E3" stroke="#596FAE" stroke-width="3"/>
</svg>
