<svg width="100" height="100" viewBox="0 0 100 100" fill="none" xmlns="http://www.w3.org/2000/svg">
<circle cx="50" cy="50" r="47" stroke="#596FAE" stroke-width="6"/>
<path d="M51.7319 30.0205V41.7238V52.2696L58.6769 54.0701L66.9077 58.7L73.5954 65.9021L76.5533 63.8443V55.099L73.5954 51.3694H69.0941L62.6637 46.6109L65.6217 32.7212L63.6926 26.5481L51.7319 22.1754L47.6166 26.5481L51.7319 30.0205Z" fill="#596FAE" stroke="#596FAE" stroke-width="4"/>
<path d="M26.1708 44.3563C20.5536 51.2697 26.6978 61.6662 23.4469 70.8921H30.3883C31.7386 70.8921 40.7346 75.656 45.3256 74.8458C49.9165 74.0356 57.3374 66.6961 58.4176 62.1052C58.7688 60.6127 59.6403 50.0718 58.4176 47.168C55.8795 41.14 51.8377 39.3939 49.1038 38.1181C45.053 36.2277 33.1922 35.7146 26.1708 44.3563Z" stroke="#596FAE" stroke-width="3"/>
</svg>
