<svg width="101" height="101" viewBox="0 0 101 101" fill="none" xmlns="http://www.w3.org/2000/svg">
<path d="M19.4856 43.7378L20.9923 70.8575C21.1111 72.9963 22.31 74.9278 24.1741 75.9833L32.3195 80.5956C33.265 81.1309 34.3331 81.4123 35.4196 81.4123H66.8442C68.9056 81.4123 70.8362 80.4026 72.012 78.7094L76.5888 72.1188C77.3205 71.0651 77.7127 69.813 77.7127 68.5301V55.8885C77.7127 54.9325 77.9305 53.9892 78.3496 53.1301L79.5826 50.6024C80.3251 49.0801 80.4226 47.3228 79.853 45.7278L74.7582 31.4624C74.222 29.9612 73.136 28.7194 71.7196 27.9881L53.1881 18.4196C51.6252 17.6127 49.796 17.4968 48.1438 18.1L33.4915 23.4493C32.2862 23.8894 31.2443 24.6874 30.5054 25.7364L20.6238 39.7658C19.808 40.9239 19.407 42.3234 19.4856 43.7378Z" fill="#485D9B"/>
<path d="M35.9256 66.8488C40.1621 67.9503 42.7486 63.958 43.0963 62.5799C43.4439 61.2019 43.5532 60.0672 43.0963 59.5291C43.7741 59.8191 47.7359 61.7293 49.9654 61.7293C52.1949 61.7293 58.6701 61.2674 60.9323 59.9215C65.6927 57.0894 66.4158 50.135 66.4158 44.4352C66.4158 39.4941 61.2129 33.7846 60.4503 33.1067C59.6877 32.4289 55.5389 28.9825 48.7602 29.0672C41.9816 29.1519 39.7579 30.4153 35.9901 32.5824C32.2223 34.7496 28.3641 44.4914 28.3643 46.6479C28.3645 50.8847 28.4489 58.5103 29.5504 61.3912C30.6519 64.272 31.689 65.7473 35.9256 66.8488Z" fill="white"/>
<path d="M46.9208 50.8847C53.7706 53.9165 56.2615 51.3491 56.5695 48.3208C56.8775 45.2924 56.9719 40.2419 52.5659 39.903C48.1599 39.5641 42.1756 39.1916 39.3795 42.5808C36.5833 45.9701 38.617 55.7989 40.9894 57.8324C42.5502 59.1702 42.2177 58.4943 43.0963 59.5291M43.0963 59.5291C43.5532 60.0672 43.4439 61.2019 43.0963 62.5799C42.7486 63.958 40.1621 67.9503 35.9256 66.8488C31.689 65.7473 30.6519 64.272 29.5504 61.3912C28.4489 58.5103 28.3645 50.8847 28.3643 46.6479C28.3641 44.4914 32.2223 34.7496 35.9901 32.5824C39.7579 30.4153 41.9816 29.1519 48.7602 29.0672C55.5389 28.9825 59.6877 32.4289 60.4503 33.1067C61.2129 33.7846 66.4158 39.4941 66.4158 44.4352C66.4158 50.135 65.6927 57.0894 60.9323 59.9215C58.6701 61.2674 52.1949 61.7293 49.9654 61.7293C47.7359 61.7293 43.7741 59.8191 43.0963 59.5291Z" stroke="#485D9B" stroke-width="2.51666"/>
<path d="M64.0172 61.7941C64.3092 60.875 65.4841 60.6125 66.1396 61.3199L67.7863 63.0974C68.0264 63.3565 68.3644 63.5028 68.7177 63.5005L71.1407 63.4845C72.1051 63.4782 72.7179 64.5145 72.2476 65.3564L71.066 67.4719C70.8937 67.7803 70.859 68.1469 70.9704 68.4822L71.7344 70.7817C72.0384 71.6969 71.2422 72.5999 70.2961 72.4128L67.9191 71.9428C67.5725 71.8743 67.2131 71.9546 66.9286 72.1641L64.9778 73.6012C64.2013 74.1732 63.0964 73.695 62.982 72.7374L62.6945 70.3315C62.6526 69.9807 62.4651 69.6637 62.178 69.4579L60.2083 68.0466C59.4244 67.4849 59.5378 66.2864 60.4131 65.8816L62.6125 64.8647C62.9331 64.7164 63.1767 64.4402 63.2837 64.1035L64.0172 61.7941Z" fill="white"/>
<path d="M52.0491 70.6427C52.341 69.7235 53.516 69.461 54.1714 70.1684L54.4119 70.428C54.652 70.6871 54.9899 70.8334 55.3432 70.8311L55.697 70.8287C56.6614 70.8224 57.2742 71.8587 56.8039 72.7007L56.6314 73.0096C56.4591 73.318 56.4244 73.6846 56.5358 74.0199L56.6473 74.3557C56.9514 75.2709 56.1552 76.1739 55.2091 75.9868L54.862 75.9182C54.5154 75.8497 54.156 75.93 53.8716 76.1395L53.5867 76.3494C52.8102 76.9214 51.7054 76.4431 51.5909 75.4856L51.5489 75.1342C51.507 74.7834 51.3196 74.4664 51.0324 74.2607L50.7448 74.0546C49.9609 73.4929 50.0742 72.2943 50.9496 71.8896L51.2708 71.7411C51.5914 71.5928 51.835 71.3166 51.9419 70.9799L52.0491 70.6427Z" fill="white"/>
<circle cx="50.0542" cy="50.0327" r="45.8448" stroke="#485D9B" stroke-width="8.31041"/>
</svg>
