<svg width="83" height="83" viewBox="0 0 83 83" fill="none" xmlns="http://www.w3.org/2000/svg">
<circle cx="41.6891" cy="41.6935" r="38.19" fill="#C4CEED" stroke="#596FAE" stroke-width="6"/>
<path fill-rule="evenodd" clip-rule="evenodd" d="M55.9779 20.989C55.6088 19.143 53.94 15.4068 50.2186 15.2296C45.5668 15.0081 42.244 17.4447 41.5795 20.989C41.1053 23.518 41.3078 25.3702 41.4628 26.7873C41.525 27.3561 41.5795 27.8548 41.5795 28.2989C41.5795 29.0158 40.8891 29.8658 40.1067 30.5839C29.4595 31.4617 20.5358 40.4772 20.5358 50.0074C20.5358 60.0392 30.4236 68.1716 41.8012 68.1716C53.1787 68.1716 62.845 60.0392 62.845 50.0074C62.845 42.5938 57.566 35.4918 50.2186 32.2896V31.8432C53.1721 31.917 59.8766 30.6913 59.5222 26.0838C59.2495 22.5396 56.7163 20.8413 55.9779 20.989Z" fill="#F5F6E3"/>
<path d="M41.9721 37.6199L43.6564 44.9396L51.4787 48.2852C51.9407 48.5506 51.897 49.2495 51.4059 49.4506L44.5524 54.0985L43.6564 62.331C43.5988 62.8788 42.945 63.1051 42.5773 62.7045L36.6202 57.3834C36.4799 57.2305 36.2762 57.1575 36.0743 57.1876L29.8196 58.1195C29.377 58.1855 29.011 57.7665 29.1212 57.3198L31.06 49.6553C31.0929 49.522 31.0836 49.3813 31.0335 49.2537L27.3118 42.9664C27.1326 42.5096 27.4949 42.0229 27.9693 42.0832L35.3673 42.807L41.0111 37.2155C41.3798 36.9632 41.8796 37.1736 41.9721 37.6199Z" fill="#596FAE"/>
<path d="M55.564 21.0714L55.6465 21.4837L56.0588 21.4018C56.0588 21.4018 56.0709 21.3999 56.0984 21.4023C56.1271 21.4048 56.1665 21.4116 56.2167 21.4257C56.3179 21.454 56.4474 21.5072 56.598 21.5918C56.8989 21.7606 57.2577 22.0392 57.61 22.433C58.312 23.2177 58.9725 24.4421 59.1012 26.1159C59.2072 27.4936 58.6173 28.5314 57.6436 29.3254C56.6549 30.1316 55.2805 30.6737 53.8878 31.0054C53.3007 31.1452 52.7162 31.2463 52.1649 31.3142L50.8969 31.4703L52.0092 32.0987C52.2813 32.2524 52.4476 32.5585 52.4085 32.8866L52.3698 33.2121C52.3613 33.2836 52.3438 33.3511 52.3187 33.4139L52.1856 33.7475L52.4941 33.9315C52.605 33.9977 52.7152 34.0647 52.8247 34.1327L52.8366 34.1401L52.849 34.1467C54.604 35.0803 57.8158 37.2256 59.3969 39.7543C59.4353 39.8157 59.4355 39.8981 59.3851 39.9706L59.2216 40.2058L59.3803 40.4443C61.3077 43.3405 62.4227 46.6469 62.4227 50.0071C62.4227 59.7475 53.0086 67.7502 41.7999 67.7502C30.5852 67.7502 20.9556 59.7423 20.9556 50.0071C20.9556 41.3248 28.5918 33.0034 38.1569 31.265C38.6459 31.1762 39.1397 31.1046 39.6376 31.0511L40.1619 30.9948L39.9945 30.5061C39.9945 30.4936 39.9947 30.4808 39.995 30.4678C40.0081 29.8595 40.2809 28.7814 41.3234 27.957L41.3312 27.9508C41.3334 27.9514 41.3363 27.9525 41.3397 27.9543L42.0297 28.335L41.9626 27.5498C41.9408 27.2945 41.9113 27.0247 41.8806 26.7439L41.8803 26.7413C41.8534 26.4949 41.8253 26.2387 41.7997 25.9687C41.6782 24.6898 41.6102 23.1044 41.9923 21.0664C42.6091 17.7767 45.7029 15.436 50.1975 15.65C51.9036 15.7312 53.147 16.6237 54.0224 17.7427C54.9035 18.869 55.3898 20.2008 55.564 21.0714ZM61.1711 38.1483C59.6893 35.9677 57.3658 34.1606 55.5514 32.9972C56.4656 32.7084 57.379 32.3234 58.2052 31.8163C60.0495 30.6841 61.6762 28.7695 61.4582 25.9346C61.2871 23.7102 60.3973 22.0029 59.3715 20.8563C58.8649 20.29 58.3062 19.8392 57.7542 19.5296C57.6912 19.4943 57.6267 19.4599 57.5609 19.4269C57.2282 18.4442 56.6866 17.3117 55.8845 16.2862C54.7109 14.786 52.8834 13.4113 50.3099 13.2888C44.9344 13.0328 40.554 15.9103 39.6689 20.6307C39.2045 23.1072 39.3257 25.0173 39.4703 26.4351C38.6395 27.2103 38.154 28.0967 37.8927 28.9113C27.3069 30.7631 18.5917 39.9554 18.5917 50.0071C18.5917 61.4088 29.6725 70.1141 41.7999 70.1141C53.9553 70.1141 64.7866 61.385 64.7866 50.0071C64.7866 46.3936 63.6729 42.8936 61.7886 39.8233C61.7859 39.507 61.7241 39.1857 61.5953 38.8763L61.6245 38.8581L61.4031 38.5039C61.4025 38.5029 61.4019 38.502 61.4013 38.501L61.178 38.144L61.1711 38.1483Z" fill="#596FAE" stroke="#596FAE" stroke-width="0.842172"/>
<path d="M51.1625 31.6081C46.8821 31.2286 43.186 28.9355 41.6172 27.6357C41.4617 27.5068 41.2389 27.4893 41.0799 27.6139C39.8721 28.5595 39.5732 29.8187 39.5745 30.5182C39.5747 30.6557 39.6552 30.7781 39.7735 30.848C44.369 33.5612 49.4009 33.745 51.7623 33.4591C52.0098 33.4291 52.1739 33.1908 52.0951 32.9543C51.9122 32.4054 51.631 31.978 51.4357 31.7431C51.368 31.6618 51.2678 31.6175 51.1625 31.6081Z" fill="#596FAE"/>
<path d="M59.7549 39.5313C58.0128 36.7453 54.4098 34.4511 52.7383 33.6153H50.5231C49.6979 37.4112 50.73 41.7579 51.4721 43.8282C51.5638 44.084 51.8089 44.248 52.0806 44.248H55.5109C55.9171 44.248 56.2287 43.8868 56.1391 43.4905C55.3677 40.0768 52.8669 35.9967 51.6307 34.2798C54.2775 35.9924 56.4341 39.0843 57.4696 40.9116C57.6697 41.2646 58.1317 41.3808 58.4641 41.1481L59.5674 40.3758C59.8421 40.1835 59.9326 39.8155 59.7549 39.5313Z" fill="#596FAE"/>
<rect x="50.2184" y="31.4001" width="2.77246" height="2.7626" rx="1.3813" transform="rotate(6.78557 50.2184 31.4001)" fill="#596FAE"/>
</svg>
