<svg width="101" height="101" viewBox="0 0 101 101" fill="none" xmlns="http://www.w3.org/2000/svg">
<circle cx="50.0698" cy="50.5815" r="45.8448" stroke="#485D9B" stroke-width="8.31041"/>
<path d="M75.8598 43.4654C75.8598 50.298 73.9373 56.1391 70.3336 60.4717C79.4764 60.5533 79.3152 81.3974 67.9263 83.6291C69.0441 83.7948 67.8459 68.5453 63.3682 70.198C65.5653 72.8602 58.8217 88.4062 53.7629 86.6276C51.6765 87.0714 52.9909 70.198 50.5926 70.198C48.1943 70.198 49.6406 87.0714 47.5097 86.6276C43.0526 87.2986 36.284 71.9361 36.8706 70.198C28.4341 69.6578 31.2753 85.2496 33.0418 84.2976C20.456 82.5437 20.4005 61.2201 30.8011 60.9475C26.662 56.5709 24.3354 50.5514 24.3354 43.4654C24.3354 28.4842 34.7345 16.3396 50.676 16.3396C66.6175 16.3396 75.8598 28.4842 75.8598 43.4654Z" fill="#485D9B"/>
<circle cx="43.4296" cy="57.672" r="4.84512" fill="white"/>
<circle cx="59.9384" cy="57.672" r="4.84512" fill="white"/>
</svg>
