<svg width="85" height="85" viewBox="0 0 85 85" fill="none" xmlns="http://www.w3.org/2000/svg">
<circle cx="42.5" cy="42.5" r="42" fill="#596FAE" stroke="#596FAE"/>
<path d="M74.6924 42.5C74.6924 60.2715 60.0433 74.6923 41.9552 74.6923C23.8671 74.6923 9.21802 60.2715 9.21802 42.5C9.21802 24.7284 23.8671 10.3077 41.9552 10.3077C60.0433 10.3077 74.6924 24.7284 74.6924 42.5Z" fill="#F5F6E3" stroke="#596FAE"/>
<path d="M41.7402 16.9656C41.8345 16.8064 42.0758 16.8064 42.1702 16.9656L50.29 30.6676C50.4677 30.9675 50.7636 31.1774 51.1032 31.2496L66.8708 34.6056C67.0627 34.6464 67.1185 34.8601 67.0037 34.9864L56.2543 46.8107C56.0199 47.0686 55.905 47.4135 55.9409 47.7611L57.566 63.5373C57.5828 63.7006 57.406 63.854 57.2182 63.7727L42.455 57.3784C42.1363 57.2404 41.774 57.2404 41.4554 57.3784L41.6541 57.8372L41.4554 57.3784L26.6921 63.7727C26.5043 63.854 26.3275 63.7006 26.3443 63.5373L27.9695 47.7611C28.0053 47.4135 27.8905 47.0686 27.656 46.8107L16.9066 34.9864C16.7918 34.8601 16.8477 34.6464 17.0395 34.6056L32.8072 31.2496C33.1468 31.1774 33.4427 30.9675 33.6204 30.6676L41.7402 16.9656Z" fill="#596FAE" stroke="#596FAE"/>
</svg>
