<svg width="60" height="60" viewBox="0 0 60 60" fill="none" xmlns="http://www.w3.org/2000/svg">
<path fill-rule="evenodd" clip-rule="evenodd" d="M60 30C60 46.5685 46.5685 60 30 60C13.4315 60 0 46.5685 0 30C0 13.4315 13.4315 0 30 0C46.5685 0 60 13.4315 60 30ZM38.0455 15.5397L15.2527 21.7241C14.388 21.9588 13.8773 22.8499 14.1119 23.7145L19.9633 45.28C20.1979 46.1447 21.089 46.6554 21.9537 46.4208L44.7465 40.2364C45.6112 40.0018 46.1219 39.1106 45.8873 38.246L40.0359 16.6805C39.8013 15.8159 38.9102 15.3051 38.0455 15.5397ZM14.1907 17.8102C11.1644 18.6313 9.37683 21.7502 10.198 24.7765L16.0494 46.342C16.8705 49.3682 19.9894 51.1559 23.0157 50.3347L45.8085 44.1503C48.8348 43.3292 50.6224 40.2103 49.8013 37.184L43.9499 15.6185C43.1287 12.5923 40.0098 10.8047 36.9836 11.6258L14.1907 17.8102ZM19.1704 23.4631C17.8734 23.815 17.1073 25.1517 17.4592 26.4486L17.7848 27.6485C18.1367 28.9455 19.4734 29.7116 20.7703 29.3597L27.5288 27.5259C28.8258 27.174 29.5919 25.8373 29.24 24.5404L28.9144 23.3405C28.5625 22.0435 27.2258 21.2774 25.9289 21.6293L19.1704 23.4631ZM21.9961 43.1691L20.7217 38.4724L41.7922 32.7552L43.0666 37.452L21.9961 43.1691ZM18.8275 31.4905L20.1019 36.1872L41.1724 30.4701L39.898 25.7734L18.8275 31.4905Z" fill="#C4CEED"/>
</svg>
