<svg width="101" height="101" viewBox="0 0 101 101" fill="none" xmlns="http://www.w3.org/2000/svg">
<path fill-rule="evenodd" clip-rule="evenodd" d="M80.8739 29.3439L67.645 18.9458C66.3099 17.8964 64.3707 18.1633 63.3689 19.5344L60.3833 23.6204C59.55 24.7609 59.1457 26.1588 59.2417 27.5681L59.5741 32.4474C59.6271 33.2252 59.3752 33.9931 58.8718 34.5884L52.0768 42.6242C51.8897 42.8454 51.6209 42.9812 51.3319 43.0005L51.0543 43.019C50.0589 43.0854 49.7759 44.416 50.6581 44.8817V44.8817L52.7095 45.7264C53.2421 45.9457 53.7003 46.3137 54.0294 46.7864L56.6173 50.5036V50.5036C56.8698 50.9165 57.4864 50.8594 57.6589 50.4072L59.1376 46.5306C59.2556 46.2212 59.4312 45.937 59.655 45.693L65.0134 39.8509C65.4982 39.3223 66.1563 38.985 66.8684 38.8999L73.1365 38.151C74.7024 37.9639 76.1593 37.2535 77.271 36.1349L81.0565 32.3261C81.8999 31.4775 81.8146 30.0832 80.8739 29.3439ZM67.3628 25.5617C66.9139 25.2483 66.2965 25.3541 65.9775 25.799L64.5192 27.8335C64.3239 28.106 64.2781 28.4582 64.3973 28.7715L65.8327 32.5462C65.9735 32.9165 66.3197 33.1687 66.7153 33.1894L71.2829 33.4277C71.5397 33.4411 71.7918 33.3551 71.9868 33.1875L73.8321 31.6015C74.3275 31.1758 74.2883 30.3971 73.7528 30.0232L67.3628 25.5617Z" fill="#485D9B"/>
<path d="M27.9682 73.2416C22.7641 68.0375 21.7575 55.2934 35.8472 40.0348L36.4595 39.5148C39.1258 37.2505 43.0542 37.3021 45.6602 39.6355L49.4214 43.0033C50.5809 44.0415 52.2606 44.2573 53.6448 43.5458C55.8779 42.3981 58.3298 44.7006 57.3116 47.0158C56.5803 48.6787 56.9511 50.6248 58.248 51.8999L61.2627 54.8637C62.9665 56.5388 64.2484 58.3618 64.7671 60.1501C65.2699 61.8838 65.0699 63.6119 63.7491 65.2797C63.1633 66.0195 62.4797 66.8895 61.6836 67.9113C57.049 73.8606 50.4222 77.0202 44.0201 77.7631C37.5905 78.5093 31.5344 76.808 27.9682 73.2416Z" fill="#485D9B" stroke="#485D9B" stroke-width="2"/>
<path d="M54.0261 61.0947C56.2193 60.7442 59.2783 62.1842 59.9616 60.6103C60.6448 59.0363 54.832 53.5958 53.8444 53.4027C52.8569 53.2097 49.9212 56.6263 48.4541 56.6127C46.9869 56.5991 45.6248 55.237 45.6658 53.8245C45.7069 52.4119 48.8681 49.7086 48.4541 48.0124C48.0401 46.3162 43.85 42.2917 42.0407 42.5665C40.2314 42.8414 34.4837 48.5889 32.8397 50.4407C31.1957 52.2926 28.4074 57.8162 28.8019 61.1702C29.1964 64.5242 30.5931 69.6686 33.4753 71.3804C36.3576 73.0923 39.0664 71.8147 39.0664 71.8147C39.0664 71.8147 51.8329 61.4451 54.0261 61.0947Z" fill="#485D9B"/>
<circle cx="50.062" cy="50.0327" r="45.8448" stroke="#485D9B" stroke-width="8.31041"/>
</svg>
