<svg width="101" height="101" viewBox="0 0 101 101" fill="none" xmlns="http://www.w3.org/2000/svg">
<circle cx="50.0859" cy="50.905" r="45.8448" stroke="#485D9B" stroke-width="8.31041"/>
<circle cx="29.4292" cy="46.2847" r="5.86258" fill="#485D9B"/>
<circle cx="33.1934" cy="58.3787" r="3.76442" fill="#485D9B"/>
<path d="M17.921 31.7377C23.7286 26.956 28.3981 26.9257 36.0779 29.8159C26.6637 31.0877 21.3692 35.5483 13.4648 50.3255C12.4032 43.1102 12.4895 38.8402 17.921 31.7377Z" fill="#485D9B"/>
<mask id="path-5-inside-1" fill="white">
<path fill-rule="evenodd" clip-rule="evenodd" d="M29.0512 27.5308C35.5904 27.5308 45.8232 34.8336 50.0859 43.1322C54.3487 34.8336 64.5815 27.5308 71.1207 27.5308C80.8291 26.5733 88.4492 35.2388 87.2242 46.9836C87.2242 57.7452 79.7842 67.9486 71.3533 67.9486C71.2017 67.9486 71.048 67.9465 70.8924 67.9421C71.5387 69.3937 71.898 71.0013 71.898 72.6928C71.898 79.1491 66.6641 84.3831 60.2077 84.3831C55.8838 84.3831 52.1082 82.0356 50.0858 78.5457C48.0634 82.0357 44.2878 84.3832 39.9639 84.3832C33.5075 84.3832 28.2736 79.1492 28.2736 72.6929C28.2736 71.0013 28.6328 69.3937 29.2792 67.9421C29.1237 67.9465 28.9701 67.9487 28.8186 67.9487C20.3877 67.9487 12.9477 57.7452 12.9477 46.9837C11.7227 35.2388 19.3428 26.5733 29.0512 27.5308Z"/>
</mask>
<path d="M50.0859 43.1322L47.367 44.5289L50.0859 49.822L52.8049 44.5289L50.0859 43.1322ZM29.0512 27.5308L28.7511 30.5727L28.9008 30.5875H29.0512V27.5308ZM71.1207 27.5308V30.5875H71.2711L71.4207 30.5727L71.1207 27.5308ZM87.2242 46.9836L84.184 46.6665L84.1675 46.8247V46.9836H87.2242ZM70.8924 67.9421L70.9778 64.8866L66.1254 64.7509L68.1 69.1855L70.8924 67.9421ZM50.0858 78.5457L52.7305 77.0131L50.0858 72.4492L47.4411 77.0131L50.0858 78.5457ZM29.2792 67.9421L32.0715 69.1856L34.0462 64.751L29.1938 64.8867L29.2792 67.9421ZM12.9477 46.9837H16.0044V46.8247L15.9879 46.6666L12.9477 46.9837ZM52.8049 41.7356C50.4118 37.0769 46.4326 32.8333 42.2285 29.7537C38.1076 26.735 33.272 24.4741 29.0512 24.4741V30.5875C31.3695 30.5875 34.92 31.9781 38.6159 34.6854C42.2287 37.3319 45.4973 40.889 47.367 44.5289L52.8049 41.7356ZM71.1207 24.4741C66.8998 24.4741 62.0643 26.735 57.9433 29.7537C53.7392 32.8333 49.76 37.0769 47.367 41.7356L52.8049 44.5289C54.6746 40.889 57.9432 37.3319 61.556 34.6854C65.2519 31.978 68.8024 30.5875 71.1207 30.5875V24.4741ZM90.2644 47.3007C91.6336 34.1726 82.9612 23.2915 70.8207 24.4889L71.4207 30.5727C78.6969 29.855 85.2647 36.305 84.184 46.6665L90.2644 47.3007ZM71.3533 71.0053C76.8448 71.0053 81.6242 67.7099 84.8981 63.3324C88.2 58.9176 90.2809 53.0365 90.2809 46.9836H84.1675C84.1675 51.6923 82.5284 56.2937 80.0025 59.671C77.4487 63.0856 74.2928 64.892 71.3533 64.892V71.0053ZM70.8069 70.9976C70.9901 71.0027 71.1723 71.0053 71.3533 71.0053V64.892C71.231 64.892 71.1059 64.8902 70.9778 64.8866L70.8069 70.9976ZM74.9547 72.6928C74.9547 70.5646 74.502 68.534 73.6847 66.6987L68.1 69.1855C68.5755 70.2533 68.8413 71.4379 68.8413 72.6928H74.9547ZM60.2077 87.4398C68.3522 87.4398 74.9547 80.8373 74.9547 72.6928H68.8413C68.8413 77.461 64.9759 81.3264 60.2077 81.3264V87.4398ZM47.4411 80.0783C49.9877 84.4728 54.7494 87.4398 60.2077 87.4398V81.3264C57.0182 81.3264 54.2287 79.5985 52.7305 77.0131L47.4411 80.0783ZM39.9639 87.4398C45.4222 87.4398 50.1839 84.4728 52.7305 80.0782L47.4411 77.0131C45.9429 79.5986 43.1534 81.3265 39.9639 81.3265V87.4398ZM25.2169 72.6929C25.2169 80.8374 31.8193 87.4398 39.9639 87.4398V81.3265C35.1956 81.3265 31.3302 77.4611 31.3302 72.6929H25.2169ZM26.4869 66.6987C25.6696 68.5341 25.2169 70.5647 25.2169 72.6929H31.3302C31.3302 71.438 31.596 70.2534 32.0715 69.1856L26.4869 66.6987ZM28.8186 71.0053C28.9994 71.0053 29.1815 71.0027 29.3646 70.9976L29.1938 64.8867C29.0659 64.8902 28.9408 64.892 28.8186 64.892V71.0053ZM9.89102 46.9837C9.89102 53.0365 11.9719 58.9177 15.2737 63.3324C18.5476 67.7099 23.3271 71.0053 28.8186 71.0053V64.892C25.8791 64.892 22.7232 63.0857 20.1693 59.671C17.6434 56.2937 16.0044 51.6923 16.0044 46.9837H9.89102ZM29.3512 24.4889C17.2106 23.2915 8.53827 34.1726 9.90751 47.3007L15.9879 46.6666C14.9072 36.305 21.4749 29.8551 28.7511 30.5727L29.3512 24.4889Z" fill="#485D9B" mask="url(#path-5-inside-1)"/>
<circle cx="68.5996" cy="46.2847" r="5.86258" fill="#485D9B"/>
<circle cx="66.5015" cy="58.3787" r="3.76442" fill="#485D9B"/>
<path d="M29.0183 20.6472C47.6299 20.9421 46.8395 26.784 50.1257 44.684C48.1642 39.7902 45.2917 37.252 45.2917 37.252C42.0696 25.9534 39.6381 24.674 29.0181 25.3209L29.0183 20.6472Z" fill="#485D9B"/>
<path d="M71.1932 20.6472C52.5815 20.9421 53.3719 26.784 50.0857 44.684C52.0472 39.7902 54.9197 37.252 54.9197 37.252C58.1418 25.9534 60.5733 24.674 71.1934 25.3209L71.1932 20.6472Z" fill="#485D9B"/>
<path d="M82.3654 31.7377C76.5578 26.956 71.8883 26.9257 64.2084 29.8159C73.6226 31.0877 78.9172 35.5483 86.8215 50.3255C87.8832 43.1102 87.7969 38.8402 82.3654 31.7377Z" fill="#485D9B"/>
</svg>
