<svg width="60" height="60" viewBox="0 0 60 60" fill="none" xmlns="http://www.w3.org/2000/svg">
<path fill-rule="evenodd" clip-rule="evenodd" d="M60 30C60 46.5685 46.5685 60 30 60C13.4315 60 0 46.5685 0 30C0 13.4315 13.4315 0 30 0C46.5685 0 60 13.4315 60 30ZM30.2054 27.9678L31.4321 33.299L37.1294 35.7357C37.4659 35.929 37.4341 36.438 37.0764 36.5845L32.0848 39.9697L31.4321 45.9657C31.3902 46.3647 30.914 46.5295 30.6462 46.2378L26.3074 42.3622C26.2052 42.2509 26.0569 42.1977 25.9098 42.2196L21.3544 42.8984C21.032 42.9464 20.7655 42.6412 20.8457 42.3159L22.2578 36.7336C22.2817 36.6365 22.275 36.534 22.2385 36.4411L19.5279 31.8619C19.3973 31.5292 19.6612 31.1747 20.0068 31.2186L25.3949 31.7457L29.5055 27.6733C29.774 27.4895 30.1381 27.6427 30.2054 27.9678ZM40.4056 15.8548C40.1366 14.5102 38.921 11.7892 36.2109 11.6601C32.8228 11.4988 30.4028 13.2735 29.9188 15.8548C29.6334 17.377 29.6846 18.5626 29.7746 19.5109C29.7935 19.7101 29.8142 19.8988 29.8338 20.0779L29.8338 20.078L29.8339 20.079C29.8564 20.2845 29.8774 20.4775 29.893 20.6593C29.9119 20.6696 29.93 20.6819 29.947 20.696C31.0819 21.6363 33.7454 23.2903 36.8362 23.5835C36.956 23.5517 37.0837 23.5416 37.2141 23.5571C37.7535 23.6212 38.1455 24.1014 38.1015 24.6383L38.1112 24.5567C38.1548 24.1906 37.9688 23.8502 37.6667 23.6796C38.0786 23.6289 38.5155 23.5533 38.9551 23.4486C41.0284 22.9548 43.1598 21.8121 42.987 19.5656C42.7885 16.9847 40.9438 15.7479 40.4056 15.8548ZM28.6042 23.0356C31.3311 24.6456 34.269 25.0328 36.1942 25.0083C36.2441 25.1066 36.3098 25.196 36.3883 25.2731C35.8724 27.9835 36.5986 31.0219 37.1247 32.4896C37.1915 32.6759 37.37 32.7953 37.5679 32.7953H40.0662C40.3621 32.7953 40.589 32.5322 40.5238 32.2436C39.9642 29.7673 38.1551 26.8095 37.2511 25.5503L37.261 25.5487C39.1792 26.7987 40.7413 29.0392 41.4929 30.3652C41.6386 30.6224 41.9751 30.707 42.2172 30.5375L43.0207 29.975C43.0685 29.9417 43.1085 29.901 43.1402 29.8556C44.5726 32.0083 45.407 34.4745 45.407 36.9899C45.407 44.2963 38.3667 50.2194 30.0801 50.2194C21.7935 50.2194 14.5918 44.2963 14.5918 36.9899C14.5918 30.4936 20.2849 24.3256 27.3719 23.0376C27.7353 22.9716 28.1023 22.9184 28.4725 22.8786C28.4634 22.8522 28.4585 22.8242 28.4585 22.7953L28.4586 22.7709L28.4589 22.7521C28.47 22.2377 28.6974 21.358 29.5428 20.6895L29.5549 20.68C29.6262 20.6241 29.7151 20.6075 29.7994 20.6248C29.7153 20.6077 29.6268 20.6245 29.5557 20.6801C28.676 21.3689 28.4583 22.2859 28.4592 22.7955C28.4594 22.8956 28.518 22.9847 28.6042 23.0356ZM38.0469 25.0511H37.9746C38.0327 24.9488 38.0736 24.8347 38.0927 24.7122L38.083 24.7938C38.0737 24.8726 38.0542 24.9477 38.0261 25.0181C38.1077 25.0667 38.1887 25.116 38.2693 25.166C38.1909 25.1243 38.1166 25.086 38.0469 25.0511ZM44.0964 28.7722C44.272 29.053 44.3435 29.3605 44.3303 29.6573C45.7053 31.8697 46.5154 34.3919 46.5154 36.9899C46.5154 45.0635 38.8113 51.3277 30.0801 51.3277C21.3648 51.3277 13.4835 45.0771 13.4835 36.9899C13.4835 29.7834 19.8014 23.1463 27.4743 21.8956C27.6436 21.2653 28.0089 20.5488 28.7046 19.945C28.5945 18.9103 28.4819 17.5041 28.8294 15.6506C29.4391 12.3992 32.4615 10.372 36.2636 10.553C38.0252 10.6369 39.2805 11.5754 40.0968 12.6188C40.6892 13.3762 41.0801 14.2211 41.309 14.9376C41.3916 14.9748 41.4722 15.0159 41.5501 15.0596C41.9195 15.2668 42.3005 15.5728 42.6495 15.9629C43.3546 16.751 43.9729 17.9319 44.092 19.4806C44.2391 21.3921 43.1513 22.6918 41.8681 23.4795C41.0946 23.9544 40.2036 24.2799 39.339 24.4958C40.7553 25.3284 42.9097 26.8743 44.0964 28.7722Z" fill="#837B75"/>
</svg>
