<svg width="83" height="84" viewBox="0 0 83 84" fill="none" xmlns="http://www.w3.org/2000/svg">
<circle cx="41.2268" cy="41.8451" r="38.1888" fill="#F5F6E3" stroke="#596FAE" stroke-width="6"/>
<path d="M42.6533 25.3865V35.0273V43.7148L48.3744 45.198L55.1548 49.012L60.6639 54.9448L63.1006 53.2497V46.0455L60.6639 42.9731H56.9558L51.6586 39.0532L54.0953 27.6113L52.5062 22.526L42.6533 18.9239L39.2632 22.526L42.6533 25.3865Z" fill="#596FAE" stroke="#596FAE" stroke-width="4"/>
<path d="M21.5969 37.196C16.9696 42.891 22.0311 51.4554 19.353 59.0555H25.0712C26.1835 59.0555 33.5942 62.9798 37.3761 62.3124C41.158 61.645 47.2712 55.5989 48.161 51.817C48.4503 50.5875 49.1682 41.9042 48.161 39.5121C46.0702 34.5464 42.7407 33.108 40.4886 32.057C37.1516 30.4998 27.3809 30.0771 21.5969 37.196Z" fill="#F5F6E3" stroke="#596FAE" stroke-width="3"/>
</svg>
