<svg width="83" height="83" viewBox="0 0 83 83" fill="none" xmlns="http://www.w3.org/2000/svg">
<circle cx="41.1915" cy="41.1913" r="38.19" fill="#F5F6E3" stroke="#596FAE" stroke-width="6"/>
<path fill-rule="evenodd" clip-rule="evenodd" d="M55.4794 21.7703C55.1102 19.9243 53.4415 16.1881 49.72 16.0109C45.0682 15.7894 41.7455 18.226 41.081 21.7703C40.6068 24.2993 40.8093 26.1515 40.9642 27.5685C41.0264 28.1374 41.081 28.6361 41.081 29.0802C41.081 29.7971 40.3905 30.6471 39.6081 31.3652C28.961 32.243 20.0372 41.2585 20.0372 50.7886C20.0372 60.8204 29.9251 68.9528 41.3026 68.9528C52.6802 68.9528 62.3465 60.8204 62.3465 50.7886C62.3465 43.3751 57.0675 36.2731 49.72 33.0708V32.6245C52.6736 32.6983 59.3781 31.4726 59.0236 26.8651C58.751 23.3208 56.2178 21.6226 55.4794 21.7703Z" fill="#F5F6E3"/>
<path d="M41.4735 38.4012L43.1579 45.7209L50.9802 49.0665C51.4421 49.3319 51.3985 50.0308 50.9074 50.2318L44.0539 54.8798L43.1579 63.1123C43.1003 63.6601 42.4465 63.8864 42.0788 63.4858L36.1216 58.1647C35.9813 58.0118 35.7777 57.9388 35.5757 57.9689L29.3211 58.9008C28.8785 58.9668 28.5125 58.5477 28.6226 58.1011L30.5615 50.4366C30.5943 50.3033 30.5851 50.1626 30.535 50.035L26.8133 43.7477C26.6341 43.2909 26.9964 42.8042 27.4708 42.8645L34.8688 43.5882L40.5126 37.9968C40.8812 37.7445 41.3811 37.9548 41.4735 38.4012Z" fill="#596FAE"/>
<path d="M55.0654 21.8527L55.1479 22.265L55.5602 22.1831C55.5602 22.1831 55.5724 22.1811 55.5998 22.1836C55.6285 22.1861 55.6679 22.1929 55.7182 22.207C55.8194 22.2353 55.9488 22.2885 56.0995 22.3731C56.4004 22.5419 56.7592 22.8205 57.1115 23.2143C57.8134 23.999 58.474 25.2234 58.6027 26.8972C58.7087 28.2749 58.1188 29.3126 57.145 30.1067C56.1564 30.9129 54.782 31.4549 53.3892 31.7867C52.8022 31.9265 52.2177 32.0276 51.6664 32.0954L50.3984 32.2515L51.5107 32.88C51.7827 33.0337 51.949 33.3398 51.91 33.6679L51.8713 33.9934C51.8628 34.0649 51.8452 34.1323 51.8202 34.1952L51.6871 34.5288L51.9956 34.7128C52.1065 34.7789 52.2167 34.846 52.3262 34.914L52.3381 34.9214L52.3505 34.928C54.1054 35.8616 57.3172 38.0069 58.8984 40.5356C58.9368 40.597 58.937 40.6793 58.8866 40.7519L58.7231 40.9871L58.8818 41.2256C60.8092 44.1218 61.9242 47.4282 61.9242 50.7884C61.9242 60.5287 52.51 68.5315 41.3014 68.5315C30.0867 68.5315 20.4571 60.5236 20.4571 50.7884C20.4571 42.1061 28.0932 33.7847 37.6583 32.0463C38.1473 31.9575 38.6412 31.8859 39.1391 31.8324L39.6633 31.776L39.496 31.2874C39.496 31.2749 39.4962 31.2621 39.4965 31.2491C39.5096 30.6408 39.7823 29.5627 40.8249 28.7383L40.8327 28.7321C40.8349 28.7327 40.8377 28.7337 40.8411 28.7356L41.5312 29.1163L41.4641 28.331C41.4423 28.0758 41.4127 27.806 41.382 27.5252L41.3818 27.5225C41.3548 27.2762 41.3268 27.02 41.3012 26.7499C41.1797 25.4711 41.1116 23.8857 41.4938 21.8476C42.1106 18.5579 45.2044 16.2172 49.6989 16.4313C51.405 16.5125 52.6485 17.405 53.5238 18.5239C54.4049 19.6502 54.8912 20.9821 55.0654 21.8527ZM60.6726 38.9296C59.1908 36.749 56.8673 34.9419 55.0529 33.7785C55.9671 33.4897 56.8805 33.1047 57.7066 32.5975C59.551 31.4654 61.1777 29.5508 60.9596 26.7159C60.7885 24.4915 59.8988 22.7842 58.873 21.6376C58.3664 21.0713 57.8077 20.6205 57.2557 20.3109C57.1926 20.2756 57.1282 20.2412 57.0624 20.2082C56.7297 19.2255 56.1881 18.0929 55.386 17.0675C54.2124 15.5673 52.3849 14.1926 49.8114 14.0701C44.4359 13.8141 40.0554 16.6916 39.1704 21.412C38.706 23.8885 38.8272 25.7986 38.9717 27.2164C38.141 27.9916 37.6555 28.8779 37.3942 29.6926C26.8084 31.5443 18.0932 40.7367 18.0932 50.7884C18.0932 62.19 29.174 70.8954 41.3014 70.8954C53.4568 70.8954 64.2881 62.1662 64.2881 50.7884C64.2881 47.1749 63.1744 43.6749 61.29 40.6046C61.2873 40.2883 61.2256 39.9669 61.0968 39.6576L61.126 39.6393L60.9045 39.2852C60.9039 39.2842 60.9033 39.2833 60.9027 39.2823L60.6795 38.9253L60.6726 38.9296Z" fill="#596FAE" stroke="#596FAE" stroke-width="0.842172"/>
<path d="M50.6639 32.3894C46.3836 32.0098 42.6875 29.7168 41.1187 28.4169C40.9631 28.288 40.7404 28.2706 40.5813 28.3951C39.3736 29.3407 39.0746 30.5999 39.0759 31.2995C39.0762 31.4369 39.1566 31.5593 39.275 31.6292C43.8705 34.3424 48.9024 34.5263 51.2637 34.2403C51.5112 34.2103 51.6754 33.972 51.5966 33.7355C51.4137 33.1866 51.1325 32.7593 50.9371 32.5243C50.8695 32.443 50.7693 32.3987 50.6639 32.3894Z" fill="#596FAE"/>
<path d="M59.2562 40.3125C57.5142 37.5266 53.9112 35.2324 52.2396 34.3966H50.0245C49.1993 38.1925 50.2314 42.5392 50.9735 44.6095C51.0652 44.8653 51.3102 45.0293 51.582 45.0293H55.0122C55.4185 45.0293 55.73 44.6681 55.6404 44.2718C54.869 40.8581 52.3682 36.778 51.1321 35.0611C53.7788 36.7737 55.9354 39.8656 56.971 41.6928C57.171 42.0459 57.633 42.1621 57.9655 41.9294L59.0687 41.1571C59.3434 40.9648 59.434 40.5968 59.2562 40.3125Z" fill="#596FAE"/>
<rect x="49.7197" y="32.1814" width="2.77246" height="2.7626" rx="1.3813" transform="rotate(6.78557 49.7197 32.1814)" fill="#596FAE"/>
</svg>
