<svg width="101" height="101" viewBox="0 0 101 101" fill="none" xmlns="http://www.w3.org/2000/svg">
<path d="M31.7785 47.2989L22.9316 39.0942C36.3017 23.419 36.9356 17.6558 46.1822 18.902C51.6039 30.231 58.7466 29.6903 66.4998 23.0732C71.0386 24.4288 74.0172 26.7919 78.5543 31.8781C82.1853 38.8349 83.2666 42.7585 84.9316 49.5056C80.2439 56.6458 76.4788 58.5757 69.9576 58.5732M31.7785 47.2989C31.8 49.6115 29.4456 51.4166 21.4908 62.1462C20.3551 63.9491 20.5924 65.5824 20.8568 67.7363C33.9803 81.6732 44.4311 81.687 57.553 81.1068C63.9345 76.7647 67.0787 73.072 69.9576 58.5732M31.7785 47.2989C34.3572 43.7027 35.8153 40.518 38.4227 33.0366M69.9576 58.5732C65.3586 52.4855 64.0681 48.2385 63.3047 39.6695" stroke="#485D9B" stroke-width="2.64422"/>
<path d="M26.791 57.2175C32.1426 66.5274 61.9049 73.9313 68.1359 62.7155C67.339 68.1815 66.2818 70.9611 62.906 75.2155C54.6604 76.8878 30.25 75.3526 21.8064 63.3019C23.7776 59.4324 24.8715 57.9064 26.791 57.2175Z" fill="#485D9B"/>
<path d="M33.0957 47.0176C45.0622 56.2169 58.1506 54.6462 66.0785 52.4773C65.2816 57.9434 71.7728 56.6742 68.397 60.9287C58.47 62.5463 43.1688 64.0256 29.1318 53.5992C31.103 49.7296 31.1762 47.7065 33.0957 47.0176Z" fill="#485D9B"/>
<path d="M64.0904 40.262C67.8278 37.4958 67.0646 37.6966 77.3828 33.0042C78.9635 33.0042 84.2075 37.2281 80.8316 41.4826C77.8139 40.9078 70.3413 45.7209 65.671 50.0328C64.0904 44.5722 61.0726 41.4826 64.0904 40.262Z" fill="#485D9B"/>
<path d="M38.0155 31.8485C40.3063 32.0612 40.3221 35.7547 49.0261 37.4458C57.9964 39.1886 64.4227 37.865 64.4227 39.582C63.6258 45.048 64.0795 40.3652 63.0877 46.6359C55.2135 45.9971 49.1133 49.7573 36.302 40.9978C38.2732 37.1283 36.096 32.5374 38.0155 31.8485Z" fill="#485D9B"/>
<path d="M43.9539 19.2856C46.2446 19.4983 41.034 28.1715 52.7555 30.9174C55.9126 31.657 59.0132 31.0056 61.0845 29.6487C64.8503 27.1819 66.4061 22.8969 67.1564 24.0371C68.0426 23.0074 70.0422 23.5882 71.7747 27.0567C68.7542 26.8117 67.5098 29.1141 61.895 32.9256C58.0977 34.8677 53.1885 34.8415 48.821 33.1716C41.8537 30.5076 41.8101 24.0072 38.5715 21.7929C40.207 20.2168 41.1883 19.6129 43.9539 19.2856Z" fill="#485D9B"/>
<path d="M33.2407 27.6538C35.4434 30.6823 36.6407 32.0193 38.5031 31.7914L34.727 39.8255C31.3446 39.1973 29.952 37.9599 28.0989 34.6436L33.2407 27.6538Z" fill="#485D9B"/>
<path d="M68.3777 54.4922C72.2625 48.3313 75.4554 46.161 82.8518 46.1724L83.8159 48.7434C77.389 48.723 74.3664 50.528 69.9973 56.8579L68.3777 54.4922Z" fill="#485D9B"/>
<path d="M25.143 37.8647C29.1543 41.7922 31.0293 43.1764 33.4269 43.5846L31.1258 46.7404L23.072 39.9358L25.143 37.8647Z" fill="#485D9B"/>
<circle cx="50.0935" cy="50.0327" r="45.8448" stroke="#485D9B" stroke-width="8.31041"/>
</svg>
