<svg width="101" height="101" viewBox="0 0 101 101" fill="none" xmlns="http://www.w3.org/2000/svg">
<path d="M36.5887 23.1035L69.0098 24.8386C69.4558 24.8625 69.7958 25.247 69.7649 25.6925L67.3787 60.0869C67.348 60.5293 66.9632 60.8622 66.521 60.829L33.9939 58.3861C33.5538 58.3531 33.2237 57.9698 33.2562 57.5297L35.7484 23.8431C35.7806 23.409 36.154 23.0803 36.5887 23.1035Z" fill="#485D9B" stroke="#485D9B" stroke-width="1.59944"/>
<path fill-rule="evenodd" clip-rule="evenodd" d="M53.66 15.9917H54.7494C55.3558 15.9917 55.84 16.4966 55.8148 17.1024L55.5937 22.409C55.5686 23.0116 55.0491 23.4734 54.4478 23.4279L53.5794 23.3621C53.0234 23.3199 52.5937 22.8565 52.5937 22.2988V17.058C52.5937 16.4691 53.0711 15.9917 53.66 15.9917ZM36.6872 82.1703L35.4169 82.0307C34.805 81.9634 34.377 81.3935 34.483 80.7871L37.5145 63.4553C37.6259 62.8183 37.1492 62.2295 36.5029 62.206L32.6961 62.0676C32.0805 62.0452 31.6119 61.5074 31.674 60.8945L31.7546 60.0986C31.8125 59.5271 32.3128 59.1041 32.886 59.1421L67.4172 61.4301C68.0188 61.47 68.4676 62.0002 68.4093 62.6003C68.3323 63.3924 68.2558 64.2067 68.2558 64.3057C68.2558 64.4178 66.715 64.2987 65.3664 64.1691C64.7211 64.1071 64.1636 64.6231 64.1842 65.271L64.7456 82.9738C64.7647 83.5757 64.282 84.0739 63.6799 84.0739H62.5062C61.938 84.0739 61.4697 83.6285 61.4412 83.0611L61.0166 74.5995C60.9894 74.0576 60.5595 73.6225 60.018 73.5887L40.3277 72.3623C39.7831 72.3284 39.3007 72.7112 39.21 73.2494L37.8552 81.2876C37.7612 81.8448 37.2489 82.232 36.6872 82.1703ZM41.8184 62.7238C41.2578 62.6895 40.7667 63.0959 40.6956 63.653L39.9999 69.1008C39.9217 69.7136 40.3788 70.2644 40.9955 70.3004L59.8946 71.404C60.5069 71.4397 61.0231 70.9528 61.0231 70.3395V64.9019C61.0231 64.3383 60.5845 63.8721 60.0219 63.8376L41.8184 62.7238Z" fill="#485D9B"/>
<circle cx="50.0386" cy="50.0327" r="45.8448" stroke="#485D9B" stroke-width="8.31041"/>
<circle cx="51.022" cy="42.2542" r="3.1968" fill="white"/>
<path d="M55.6446 31.8635C55.3459 33.7525 53.2025 38.8705 51.5972 38.6166C49.9918 38.3628 49.5324 32.8331 49.8311 30.9441C50.1299 29.055 51.6735 27.7295 53.2788 27.9834C54.8842 28.2373 55.9434 29.9744 55.6446 31.8635Z" fill="white"/>
<path d="M52.2128 53.5645C52.5116 51.6754 52.0521 46.1457 50.4468 45.8919C48.8414 45.638 46.6981 50.756 46.3993 52.6451C46.1006 54.5341 47.1598 56.2712 48.7651 56.5251C50.3705 56.779 51.9141 55.4535 52.2128 53.5645Z" fill="white"/>
<path d="M61.4538 46.7837C59.5622 46.5019 54.4251 44.4045 54.6646 42.797C54.904 41.1894 60.4294 40.6804 62.321 40.9622C64.2126 41.244 65.552 42.7756 65.3125 44.3832C65.073 45.9907 63.3454 47.0655 61.4538 46.7837Z" fill="white"/>
<path d="M39.7229 43.5466C41.6145 43.8284 47.1399 43.3193 47.3794 41.7118C47.6188 40.1042 42.4818 38.0069 40.5901 37.7251C38.6985 37.4433 36.9709 38.518 36.7314 40.1256C36.492 41.7332 37.8313 43.2648 39.7229 43.5466Z" fill="white"/>
<path d="M61.7852 38.4294C60.2119 39.5167 55.0287 41.4974 54.1047 40.1603C53.1806 38.8233 56.8656 34.6749 58.4389 33.5875C60.0122 32.5001 62.0367 32.7025 62.9608 34.0396C63.8849 35.3766 63.3585 37.342 61.7852 38.4294Z" fill="white"/>
<path d="M43.7112 50.9209C45.2845 49.8335 48.9695 45.6851 48.0454 44.3481C47.1213 43.011 41.9381 44.9917 40.3648 46.079C38.7915 47.1664 38.2652 49.1317 39.1893 50.4688C40.1134 51.8058 42.1379 52.0083 43.7112 50.9209Z" fill="white"/>
<path d="M56.0988 52.3885C54.8312 50.9563 52.2456 46.0469 53.4627 44.9697C54.6798 43.8925 59.2387 47.0555 60.5062 48.4877C61.7737 49.9198 61.8146 51.954 60.5975 53.0312C59.3805 54.1084 57.3663 53.8206 56.0988 52.3885Z" fill="white"/>
<path d="M41.5375 35.9361C42.805 37.3682 47.3639 40.5313 48.581 39.4541C49.7981 38.3769 47.2125 33.4674 45.945 32.0353C44.6774 30.6031 42.6633 30.3154 41.4462 31.3925C40.2291 32.4697 40.27 34.5039 41.5375 35.9361Z" fill="white"/>
</svg>
