<svg width="585" height="1282" viewBox="0 0 585 1282" fill="none" xmlns="http://www.w3.org/2000/svg">
<g clip-path="url(#clip0)">
<rect width="584" height="1281" transform="translate(0.614502 0.95166)" fill="#C4CEED"/>
<path fill-rule="evenodd" clip-rule="evenodd" d="M-54.0762 285.436L-31.7916 288.308C-8.83176 291.181 35.7374 296.926 80.9818 317.035C126.226 337.143 170.795 371.615 216.04 377.36C261.284 383.105 305.853 360.124 351.098 340.016C396.342 319.907 440.911 302.672 486.156 314.162C531.4 325.653 575.969 365.869 621.214 385.978C666.458 406.086 711.027 406.086 733.987 406.086H756.271V440.558H733.987C711.027 440.558 666.458 440.558 621.214 440.558C575.969 440.558 531.4 440.558 486.156 440.558C440.911 440.558 396.342 440.558 351.098 440.558C305.853 440.558 261.284 440.558 216.04 440.558C170.795 440.558 126.226 440.558 80.9818 440.558C35.7374 440.558 -8.83176 440.558 -31.7916 440.558H-54.0762V285.436Z" fill="white"/>
<path fill-rule="evenodd" clip-rule="evenodd" d="M-130.798 878.405L-109.705 870.663C-87.9537 862.77 -45.768 847.285 -6.10877 817.645C33.5505 788.005 69.3664 744.509 112.211 728.874C155.055 713.239 203.61 725.766 252.187 735.341C300.764 744.916 348.045 751.84 389.616 730.603C431.186 709.366 465.728 660.268 505.387 630.628C545.046 600.987 588.506 591.105 610.894 586.014L632.624 581.072L624.98 547.459L603.251 552.4C580.862 557.491 537.403 567.374 493.285 577.407C449.166 587.439 405.707 597.322 361.589 607.354C317.471 617.387 274.011 627.269 229.893 637.302C185.775 647.334 142.315 657.217 98.1971 667.25C54.079 677.282 10.6194 687.165 -33.4987 697.197C-77.6168 707.23 -121.076 717.112 -143.465 722.204L-165.194 727.145L-130.798 878.405Z" fill="white"/>
<path fill-rule="evenodd" clip-rule="evenodd" d="M-644.892 304.477L-606.129 307.813C-566.192 311.148 -488.667 317.819 -409.967 341.168C-331.267 364.518 -253.742 404.545 -175.042 411.216C-96.3422 417.887 -18.817 391.202 59.8828 367.853C138.583 344.504 216.108 324.491 294.808 337.833C373.508 351.175 451.033 397.873 529.733 421.222C608.432 444.572 685.958 444.572 725.895 444.572H764.657V484.599H725.895C685.958 484.599 608.432 484.599 529.733 484.599C451.033 484.599 373.508 484.599 294.808 484.599C216.108 484.599 138.583 484.599 59.8828 484.599C-18.817 484.599 -96.3422 484.599 -175.042 484.599C-253.742 484.599 -331.267 484.599 -409.967 484.599C-488.667 484.599 -566.192 484.599 -606.129 484.599H-644.892V304.477Z" fill="#596FAE"/>
<path fill-rule="evenodd" clip-rule="evenodd" d="M-62.468 304.477L-42.2977 309.101C-21.5162 313.724 18.8243 322.972 59.7761 355.337C100.728 387.702 141.068 443.186 182.02 452.433C222.972 461.68 263.312 424.691 304.264 392.326C345.216 359.961 385.557 332.219 426.508 350.713C467.46 369.208 507.801 433.939 548.752 466.304C589.704 498.669 630.045 498.669 650.826 498.669H670.996V554.153H650.826C630.045 554.153 589.704 554.153 548.752 554.153C507.801 554.153 467.46 554.153 426.508 554.153C385.557 554.153 345.216 554.153 304.264 554.153C263.312 554.153 222.972 554.153 182.02 554.153C141.068 554.153 100.728 554.153 59.7761 554.153C18.8243 554.153 -21.5162 554.153 -42.2977 554.153H-62.468V304.477Z" fill="#8FA4DF"/>
<path fill-rule="evenodd" clip-rule="evenodd" d="M-22.8469 392.162L-2.52926 396.659C18.4041 401.156 59.0394 410.151 100.29 441.633C141.541 473.115 182.177 527.085 223.428 536.08C264.679 545.074 305.314 509.095 346.565 477.613C387.816 446.131 428.451 419.146 469.702 437.136C510.953 455.126 551.589 518.09 592.84 549.572C634.091 581.054 674.726 581.054 695.659 581.054H715.977V635.023H695.659C674.726 635.023 634.091 635.023 592.84 635.023C551.589 635.023 510.953 635.023 469.702 635.023C428.451 635.023 387.816 635.023 346.565 635.023C305.314 635.023 264.679 635.023 223.428 635.023C182.177 635.023 141.541 635.023 100.29 635.023C59.0394 635.023 18.4041 635.023 -2.52926 635.023H-22.8469V392.162Z" fill="#596FAE"/>
<path fill-rule="evenodd" clip-rule="evenodd" d="M-14.0769 712.932L10.6545 710.553C36.1353 708.174 85.5981 703.416 135.81 686.763C186.023 670.11 235.485 641.562 285.697 636.804C335.91 632.046 385.372 651.078 435.585 667.731C485.797 684.384 535.26 698.658 585.472 689.142C635.684 679.626 685.147 646.32 735.359 629.667C785.571 613.014 835.034 613.014 860.515 613.014H885.246V584.465H860.515C835.034 584.465 785.571 584.465 735.359 584.465C685.147 584.465 635.684 584.465 585.472 584.465C535.26 584.465 485.797 584.465 435.585 584.465C385.372 584.465 335.91 584.465 285.697 584.465C235.485 584.465 186.023 584.465 135.81 584.465C85.5981 584.465 36.1353 584.465 10.6545 584.465H-14.0769V712.932Z" fill="#596FAE"/>
<path fill-rule="evenodd" clip-rule="evenodd" d="M-43.6726 533.949L-26.1085 534.885C-8.01217 535.82 27.116 537.691 62.7765 544.24C98.4369 550.788 133.565 562.014 169.226 563.885C204.886 565.756 240.014 558.272 275.675 551.724C311.335 545.175 346.463 539.562 382.124 543.304C417.784 547.046 452.912 560.143 488.573 566.691C524.233 573.24 559.361 573.24 577.458 573.24H595.022V584.465H577.458C559.361 584.465 524.233 584.465 488.573 584.465C452.912 584.465 417.784 584.465 382.124 584.465C346.463 584.465 311.335 584.465 275.675 584.465C240.014 584.465 204.886 584.465 169.226 584.465C133.565 584.465 98.4369 584.465 62.7765 584.465C27.116 584.465 -8.01217 584.465 -26.1085 584.465H-43.6726V533.949Z" fill="#C5CEE8"/>
<path fill-rule="evenodd" clip-rule="evenodd" d="M-22.8469 624.691L-1.42117 623.756C20.6539 622.82 63.5054 620.949 107.006 614.401C150.507 607.853 193.358 596.627 236.859 594.756C280.36 592.885 323.212 600.369 366.712 606.917C410.213 613.465 453.065 619.078 496.565 615.336C540.066 611.594 582.918 598.498 626.418 591.949C669.919 585.401 712.771 585.401 734.846 585.401H756.272V574.175H734.846C712.771 574.175 669.919 574.175 626.418 574.175C582.918 574.175 540.066 574.175 496.565 574.175C453.065 574.175 410.213 574.175 366.712 574.175C323.212 574.175 280.36 574.175 236.859 574.175C193.358 574.175 150.507 574.175 107.006 574.175C63.5054 574.175 20.6539 574.175 -1.42117 574.175H-22.8469V624.691Z" fill="#C5CEE8"/>
<circle cx="292.615" cy="472.151" r="72.9896" fill="#596FAE" stroke="#8FA4DF" stroke-width="14"/>
<path d="M327.724 405.428L341.492 413.001C338.968 417.819 330.477 428.146 324.282 434.341C323.364 435.259 322.216 437.37 324.97 438.472C328.412 439.849 349.753 448.798 349.753 469.451C349.753 485.973 338.738 496.069 333.231 499.053C334.608 491.709 333.506 476.472 318.086 474.27C298.81 471.516 292.615 492.168 295.368 499.053C297.571 504.56 304.088 508.69 307.071 510.067C297.892 513.968 270.723 517.915 235.476 502.495C238.918 496.758 246.078 482.117 247.179 469.451C248.556 453.617 252.202 424.183 282.288 419.885C301.548 417.133 313.935 425.379 315.329 432.259C315.33 432.263 315.331 432.269 315.332 432.276C315.331 432.271 315.33 432.265 315.329 432.259C315.299 432.146 315.399 433.653 317.398 433.653C319.575 433.653 329.101 415.066 327.724 405.428Z" fill="white"/>
</g>
<defs>
<clipPath id="clip0">
<rect width="584" height="1281" fill="white" transform="translate(0.614502 0.95166)"/>
</clipPath>
</defs>
</svg>
