<svg width="101" height="101" viewBox="0 0 101 101" fill="none" xmlns="http://www.w3.org/2000/svg">
<path d="M55.8047 68.7358C50.4645 69.1598 44.6535 69.1592 41.1852 68.8027C30.6613 66.4218 21.5863 59.801 16.1067 50.5041L15.9103 50.1709C19.5498 41.5788 27.3436 35.435 36.5736 33.9174L46.7283 32.2477C51.2921 31.8615 55.5355 31.8437 59.0741 32.394C62.6426 32.9489 65.3554 34.0602 67.0044 35.8084C68.5363 37.4324 68.6006 39.6772 68.1579 41.73C67.9409 42.7361 67.6133 43.635 67.3375 44.2852C67.2002 44.6089 67.0774 44.8672 66.9902 45.0422C66.9467 45.1296 66.9122 45.196 66.8894 45.239C66.878 45.2605 66.8695 45.2761 66.8643 45.2856L66.8591 45.2952L66.859 45.2954L66.8587 45.2959L66.8585 45.2962L66.8584 45.2965L66.7318 45.5228V45.7835V57.5665V57.7804L66.819 57.9749L66.8191 57.9752L66.8193 57.9755L66.8198 57.9767L66.8246 57.9876L66.846 58.0372C66.8653 58.0823 66.8942 58.1511 66.9306 58.2408C67.0033 58.4204 67.1053 58.6831 67.2191 59.0078C67.4477 59.66 67.7188 60.5479 67.8982 61.5061C68.0789 62.4716 68.1574 63.4607 68.0345 64.3326C67.9126 65.1982 67.6042 65.8785 67.0717 66.3466C66.8268 66.5617 66.3696 66.8166 65.6527 67.0775C64.9528 67.3322 64.0768 67.5677 63.0574 67.7803C61.0196 68.2052 58.4863 68.523 55.8047 68.7358Z" fill="white" stroke="#485D9B" stroke-width="2"/>
<path fill-rule="evenodd" clip-rule="evenodd" d="M41.6098 69.5815C54.0817 69.5815 64.5648 63.6751 67.5629 55.6747C72.4237 59.8094 75.0382 61.6521 77.1713 62.4131C84.7564 62.8344 86.7742 61.2301 82.7975 52.1205C87.4054 41.2238 85.956 38.661 77.1713 39.5505C73.4302 41.5669 70.7014 43.4992 67.5267 46.1933C64.4812 38.2415 54.032 32.3821 41.6098 32.3821C26.8009 32.3821 14.7959 40.7094 14.7959 50.9818C14.7959 61.2541 26.8009 69.5815 41.6098 69.5815Z" fill="#485D9B"/>
<path d="M31.854 49.1212C31.854 51.2067 30.0741 52.9472 27.8156 52.9472C25.557 52.9472 23.7771 51.2067 23.7771 49.1212C23.7771 47.0356 25.557 45.2952 27.8156 45.2952C30.0741 45.2952 31.854 47.0356 31.854 49.1212Z" fill="white" stroke="#485D9B" stroke-width="1.26856"/>
<path d="M48.0438 54.6623C48.0438 59.3236 45.1307 62.2868 43.0687 63.2654C41.0066 64.244 32.5728 65.3889 32.5728 60.7276C32.5728 56.0663 38.7485 52.7603 40.2795 52.2285C41.8104 51.6968 48.0438 50.0009 48.0438 54.6623Z" fill="white"/>
<circle cx="50.0779" cy="50.5151" r="45.8448" stroke="#485D9B" stroke-width="8.31041"/>
</svg>
